<?xml version="1.0" encoding="iso-8859-1"?>
<!-- Generator: Adobe Illustrator 19.0.0, SVG Export Plug-In . SVG Version: 6.00 Build 0)  -->
<svg version="1.1" id="Capa_1" xmlns="http://www.w3.org/2000/svg" xmlns:xlink="http://www.w3.org/1999/xlink" x="0px" y="0px"
	 viewBox="0 0 373.44 373.44" style="enable-background:new 0 0 373.44 373.44;" xml:space="preserve">
<g>
	<g>
		<path d="M363.4,306.748c-4.99-7.98-11.821-14.646-19.92-19.44v0c-8.728-5.079-18.662-7.718-28.76-7.64
			c-15.732,0.516-30.993,5.496-44,14.36c-12.149,7.61-25.477,13.152-39.44,16.4c-21.948,10.482-45.919,16.051-70.24,16.32
			c30.24,14.68,76,8,113.24,2.8l11.16-1.6c30.48-4,22.2,37.16,22.16,37.28c-0.698,3.758,1.783,7.369,5.54,8.067
			c1.429,0.265,2.905,0.074,4.22-0.547l51.52-24.68c2.735-1.005,4.555-3.606,4.56-6.52C373.43,329.235,369.95,317.175,363.4,306.748
			z"/>
	</g>
</g>
<g>
	<g>
		<path d="M158.88,0.028C71.177-0.016,0.044,71.046,0,158.748c-0.044,87.703,71.017,158.836,158.72,158.88
			c87.703,0.044,158.836-71.017,158.88-158.72C317.644,71.206,246.583,0.073,158.88,0.028z M77.76,196.628
			c-20.876,0-37.8-16.924-37.8-37.8c0-0.027,0-0.053,0-0.08c0.044-20.845,16.955-37.72,37.8-37.72c20.876,0,37.8,16.924,37.8,37.8
			C115.56,179.705,98.636,196.628,77.76,196.628z M158.72,277.668c-20.876,0-37.8-16.924-37.8-37.8c0-20.876,16.924-37.8,37.8-37.8
			c20.876,0,37.8,16.924,37.8,37.8S179.596,277.668,158.72,277.668z M145.96,158.748c0-7.069,5.731-12.8,12.8-12.8
			c7.069,0,12.8,5.731,12.8,12.8c0,7.069-5.731,12.8-12.8,12.8C151.691,171.548,145.96,165.818,145.96,158.748z M158.72,115.588
			c-20.876,0-37.8-16.924-37.8-37.8c0-20.876,16.924-37.8,37.8-37.8c20.876,0,37.8,16.924,37.8,37.8
			C196.52,98.665,179.596,115.588,158.72,115.588z M239.88,196.628c-20.876,0.022-37.818-16.884-37.84-37.76c0-0.04,0-0.08,0-0.12
			c0.044-20.83,16.93-37.698,37.76-37.72c20.876-0.022,37.818,16.884,37.84,37.76C277.662,179.665,260.756,196.606,239.88,196.628z"
			/>
	</g>
</g>
<g>
</g>
<g>
</g>
<g>
</g>
<g>
</g>
<g>
</g>
<g>
</g>
<g>
</g>
<g>
</g>
<g>
</g>
<g>
</g>
<g>
</g>
<g>
</g>
<g>
</g>
<g>
</g>
<g>
</g>
</svg>
